<?xml version="1.0" encoding="UTF-8"?><svg id="a" xmlns="http://www.w3.org/2000/svg" xmlns:xlink="http://www.w3.org/1999/xlink" viewBox="0 0 755.38 121.34"><defs><clipPath id="b"><rect width="755" height="121" style="fill:none;"/></clipPath><linearGradient id="c" x1="-15.2" y1="61.97" x2="770.8" y2="61.97" gradientTransform="translate(0 122) scale(1 -1)" gradientUnits="userSpaceOnUse"><stop offset=".72" stop-color="#252525"/><stop offset="1" stop-color="#b4b4b4"/></linearGradient><linearGradient id="d" x1="-15.2" y1="75.22" x2="770.8" y2="75.22" gradientTransform="translate(0 122) scale(1 -1)" gradientUnits="userSpaceOnUse"><stop offset=".72" stop-color="#252525"/><stop offset="1" stop-color="#b4b4b4"/></linearGradient><linearGradient id="e" x1="-10.2" y1="75.28" x2="775.8" y2="75.28" gradientTransform="translate(0 122) scale(1 -1)" gradientUnits="userSpaceOnUse"><stop offset=".72" stop-color="#252525"/><stop offset="1" stop-color="#b4b4b4"/></linearGradient><linearGradient id="f" x1="-7.2" y1="61.33" x2="778.8" y2="61.33" gradientTransform="translate(0 122) scale(1 -1)" gradientUnits="userSpaceOnUse"><stop offset=".72" stop-color="#252525"/><stop offset="1" stop-color="#b4b4b4"/></linearGradient><linearGradient id="g" x1="-5.2" y1="61.2" x2="780.8" y2="61.2" gradientTransform="translate(0 122) scale(1 -1)" gradientUnits="userSpaceOnUse"><stop offset=".72" stop-color="#252525"/><stop offset="1" stop-color="#b4b4b4"/></linearGradient><linearGradient id="h" x1="-.2" y1="75.28" x2="785.8" y2="75.28" gradientTransform="translate(0 122) scale(1 -1)" gradientUnits="userSpaceOnUse"><stop offset=".72" stop-color="#252525"/><stop offset="1" stop-color="#b4b4b4"/></linearGradient><linearGradient id="i" x1="2.8" y1="61.2" x2="788.8" y2="61.2" gradientTransform="translate(0 122) scale(1 -1)" gradientUnits="userSpaceOnUse"><stop offset=".72" stop-color="#252525"/><stop offset="1" stop-color="#b4b4b4"/></linearGradient></defs><g style="clip-path:url(#b);"><path d="M686.52,93.44l5.89-37.89c1.02-5.8,2.99-10.88,5.89-15.23,2.99-4.35,6.87-7.72,11.65-10.11,4.86-2.39,10.58-3.58,17.15-3.58,5.8,0,10.79,1.19,14.98,3.58,4.27,2.3,7.55,5.46,9.86,9.47,2.3,4.01,3.46,8.45,3.46,13.31,0,.77-.04,1.62-.13,2.56-.09.94-.21,1.88-.38,2.82l-5.5,35.07h-14.59l5.63-36.1c.08-.6.13-1.15.13-1.66.08-.6.13-1.15.13-1.66,0-4.44-1.37-8.02-4.1-10.75-2.73-2.73-6.4-4.1-11.01-4.1-2.99,0-5.8.73-8.45,2.18-2.56,1.37-4.74,3.33-6.53,5.89-1.79,2.56-2.99,5.63-3.58,9.22l-5.76,36.99h-14.72Z" style="fill:url(#c);"/><path d="M656.7,93.44l10.24-65.28h14.72l-10.24,65.28h-14.72ZM676.67,19.07c-2.65,0-4.82-.9-6.53-2.69-1.71-1.79-2.56-3.88-2.56-6.27,0-1.79.43-3.46,1.28-4.99.94-1.54,2.18-2.73,3.71-3.58,1.54-.94,3.24-1.41,5.12-1.41,2.56,0,4.69.85,6.4,2.56,1.71,1.71,2.56,3.84,2.56,6.4,0,1.79-.47,3.46-1.41,4.99-.85,1.54-2.05,2.77-3.58,3.71-1.45.85-3.11,1.28-4.99,1.28Z" style="fill:url(#d);"/><path d="M583.64,93.44L598.49,0h14.59l-5.38,33.79-.13.77c3.33-2.82,6.66-4.82,9.98-6.02,3.41-1.28,6.66-1.92,9.73-1.92,5.12,0,9.56,1.15,13.31,3.46,3.84,2.22,6.83,5.29,8.96,9.22,2.13,3.84,3.2,8.19,3.2,13.06,0,1.11-.13,2.43-.38,3.97-.17,1.45-.34,2.73-.51,3.84l-5.38,33.28h-14.59l5.38-34.56c.17-.94.3-1.83.38-2.69.09-.94.13-1.92.13-2.94,0-2.99-.6-5.5-1.79-7.55-1.11-2.13-2.77-3.75-4.99-4.86-2.13-1.11-4.74-1.66-7.81-1.66s-5.85.68-8.58,2.05c-2.65,1.37-4.91,3.29-6.78,5.76-1.79,2.47-2.94,5.29-3.46,8.45l-6.02,38.02h-14.72Z" style="fill:url(#e);"/><path d="M520.56,93.31l2.05-12.54h32.26c1.79,0,3.28-.34,4.48-1.02,1.28-.68,2.26-1.62,2.94-2.82.77-1.19,1.15-2.47,1.15-3.84,0-1.88-.64-3.41-1.92-4.61-1.28-1.28-3.11-1.92-5.5-1.92h-10.62c-4.1,0-7.64-.73-10.62-2.18-2.9-1.45-5.16-3.5-6.78-6.14-1.54-2.65-2.3-5.72-2.3-9.22s.9-6.95,2.69-10.11c1.88-3.24,4.57-5.85,8.06-7.81,3.58-2.05,7.98-3.07,13.18-3.07h29.31l-2.05,12.54h-28.67c-1.62,0-3.03.34-4.22,1.02-1.11.6-1.96,1.41-2.56,2.43-.6.94-.94,2.01-1.02,3.2,0,1.88.55,3.37,1.66,4.48,1.19,1.11,2.94,1.66,5.25,1.66h10.5c4.27,0,7.85.73,10.75,2.18,2.99,1.45,5.25,3.46,6.78,6.02,1.62,2.56,2.43,5.59,2.43,9.09,0,4.1-1.02,7.89-3.07,11.39-1.96,3.41-4.78,6.14-8.45,8.19-3.67,2.05-7.98,3.07-12.93,3.07h-32.77Z" style="fill:url(#f);"/><path d="M479.93,94.98c-6.14,0-11.65-1.28-16.51-3.84-4.86-2.65-8.75-6.31-11.65-11.01-2.9-4.78-4.35-10.24-4.35-16.38,0-5.21.98-10.03,2.94-14.46,2.05-4.52,4.78-8.49,8.19-11.9,3.5-3.41,7.51-6.06,12.03-7.94,4.52-1.88,9.34-2.82,14.46-2.82,5.97,0,11.39,1.32,16.26,3.97,4.86,2.65,8.7,6.31,11.52,11.01,2.82,4.69,4.22,10.15,4.22,16.38,0,5.12-.94,9.94-2.82,14.46-1.88,4.44-4.52,8.36-7.94,11.78-3.41,3.41-7.38,6.06-11.9,7.94-4.44,1.88-9.26,2.82-14.46,2.82ZM480.7,82.43c4.44,0,8.28-1.15,11.52-3.46,3.24-2.3,5.72-5.25,7.42-8.83,1.71-3.67,2.56-7.55,2.56-11.65,0-3.75-.77-7.08-2.3-9.98-1.54-2.9-3.67-5.16-6.4-6.78-2.73-1.71-5.93-2.56-9.6-2.56-4.27,0-8.02,1.11-11.26,3.33-3.24,2.22-5.8,5.16-7.68,8.83-1.79,3.58-2.69,7.51-2.69,11.78,0,3.58.77,6.87,2.3,9.86,1.54,2.9,3.71,5.21,6.53,6.91,2.82,1.71,6.02,2.56,9.6,2.56Z" style="fill:url(#g);"/><path d="M376.57,93.44L391.42,0h14.59l-8.58,54.27h14.21l21.63-26.11h16.26l-25.09,28.67c5.38,1.37,9.34,4.05,11.9,8.06,2.65,3.93,3.97,8.49,3.97,13.7,0,.85-.04,1.75-.13,2.69-.08.94-.21,1.92-.38,2.94l-1.54,9.22h-14.72l1.54-10.24c.09-.51.17-1.02.26-1.54.09-.6.13-1.15.13-1.66,0-3.75-1.15-6.87-3.46-9.34-2.3-2.47-5.67-3.71-10.11-3.71h-16.38l-4.22,26.5h-14.72Z" style="fill:url(#h);"/><path d="M336.3,94.98c-6.14,0-11.65-1.28-16.51-3.84-4.86-2.65-8.75-6.31-11.65-11.01-2.9-4.78-4.35-10.24-4.35-16.38,0-5.21.98-10.03,2.94-14.46,2.05-4.52,4.78-8.49,8.19-11.9,3.5-3.41,7.51-6.06,12.03-7.94,4.52-1.88,9.34-2.82,14.46-2.82,5.97,0,11.39,1.32,16.26,3.97,4.86,2.65,8.7,6.31,11.52,11.01,2.82,4.69,4.22,10.15,4.22,16.38,0,5.12-.94,9.94-2.82,14.46-1.88,4.44-4.52,8.36-7.94,11.78-3.41,3.41-7.38,6.06-11.9,7.94-4.44,1.88-9.26,2.82-14.46,2.82ZM337.07,82.43c4.44,0,8.28-1.15,11.52-3.46,3.24-2.3,5.72-5.25,7.42-8.83,1.71-3.67,2.56-7.55,2.56-11.65,0-3.75-.77-7.08-2.3-9.98-1.54-2.9-3.67-5.16-6.4-6.78-2.73-1.71-5.93-2.56-9.6-2.56-4.27,0-8.02,1.11-11.26,3.33-3.24,2.22-5.8,5.16-7.68,8.83-1.79,3.58-2.69,7.51-2.69,11.78,0,3.58.77,6.87,2.3,9.86,1.54,2.9,3.71,5.21,6.53,6.91,2.82,1.71,6.02,2.56,9.6,2.56Z" style="fill:url(#i);"/><path d="M347.31,3.84l-13.7,15.74h13.95l13.7-15.74h-13.95Z" style="fill:#5865f2;"/><path d="M252.33,93.44l10.24-65.28h14.72l-10.24,65.28h-14.72ZM272.3,19.07c-2.64,0-4.82-.9-6.53-2.69s-2.56-3.88-2.56-6.27c0-1.79.43-3.46,1.28-4.99.94-1.54,2.18-2.73,3.71-3.58,1.54-.94,3.24-1.41,5.12-1.41,2.56,0,4.69.85,6.4,2.56,1.71,1.71,2.56,3.84,2.56,6.4,0,1.79-.47,3.46-1.41,4.99-.85,1.54-2.05,2.77-3.58,3.71-1.45.85-3.11,1.28-4.99,1.28Z" style="fill:#252525;"/><path d="M213.58,121.34c-5.03,0-8.83-1.54-11.39-4.61-2.65-3.07-3.97-6.91-3.97-11.52,0-4.27,1.11-8.87,3.33-13.82,2.13-4.95,5.42-9.81,9.86-14.59,4.52-4.86,10.15-9.13,16.9-12.8l2.69,11.9c-4.44,2.99-8.06,6.19-10.88,9.6-2.82,3.33-4.91,6.53-6.27,9.6-1.28,3.16-1.92,5.93-1.92,8.32,0,1.71.3,3.03.9,3.97.68,1.02,1.62,1.54,2.82,1.54,1.45,0,2.56-.51,3.33-1.54.85-.94,1.49-2.18,1.92-3.71.43-1.54.73-3.16.9-4.86l4.1-25.09.64-4.48,6.4-41.09h14.72l-10.62,67.84c-.51,3.33-1.28,6.49-2.3,9.47s-2.43,5.68-4.22,8.06c-1.71,2.39-3.97,4.27-6.78,5.63-2.73,1.45-6.1,2.18-10.11,2.18ZM242.51,19.07c-2.65,0-4.82-.9-6.53-2.69-1.71-1.79-2.56-3.88-2.56-6.27,0-1.79.43-3.46,1.28-4.99.94-1.54,2.18-2.73,3.71-3.58,1.54-.94,3.24-1.41,5.12-1.41,2.56,0,4.69.85,6.4,2.56,1.71,1.71,2.56,3.84,2.56,6.4,0,1.79-.47,3.46-1.41,4.99-.85,1.54-2.05,2.77-3.58,3.71-1.45.85-3.12,1.28-4.99,1.28Z" style="fill:#252525;"/><path d="M169,94.98c-6.14,0-11.65-1.28-16.51-3.84-4.86-2.65-8.75-6.31-11.65-11.01-2.9-4.78-4.35-10.24-4.35-16.38,0-5.21.98-10.03,2.94-14.46,2.05-4.52,4.78-8.49,8.19-11.9,3.5-3.41,7.51-6.06,12.03-7.94,4.52-1.88,9.34-2.82,14.46-2.82,5.97,0,11.39,1.32,16.26,3.97,4.86,2.65,8.7,6.31,11.52,11.01,2.82,4.69,4.22,10.15,4.22,16.38,0,5.12-.94,9.94-2.82,14.46-1.88,4.44-4.52,8.36-7.94,11.78-3.41,3.41-7.38,6.06-11.9,7.94-4.44,1.88-9.26,2.82-14.46,2.82ZM169.76,82.43c4.44,0,8.28-1.15,11.52-3.46,3.24-2.3,5.72-5.25,7.42-8.83,1.71-3.67,2.56-7.55,2.56-11.65,0-3.75-.77-7.08-2.3-9.98-1.54-2.9-3.67-5.16-6.4-6.78-2.73-1.71-5.93-2.56-9.6-2.56-4.27,0-8.02,1.11-11.26,3.33-3.24,2.22-5.8,5.16-7.68,8.83-1.79,3.58-2.69,7.51-2.69,11.78,0,3.58.77,6.87,2.3,9.86,1.54,2.9,3.71,5.21,6.53,6.91,2.82,1.71,6.02,2.56,9.6,2.56Z" style="fill:#252525;"/><path d="M61.31,94.98c-4.52,0-8.45-.94-11.78-2.82-3.24-1.88-5.76-4.39-7.55-7.55-1.79-3.24-2.69-6.91-2.69-11.01,0-.94.04-1.96.13-3.07.17-1.11.34-2.22.51-3.33l6.27-38.91c.09-.6.13-1.24.13-1.92.09-.68.13-1.28.13-1.79,0-2.56-.85-4.65-2.56-6.27-1.62-1.71-3.75-2.56-6.4-2.56-1.96,0-3.8.43-5.5,1.28-1.62.85-2.99,2.05-4.1,3.58-1.02,1.45-1.66,3.24-1.92,5.38l-10.62,67.46H0L10.37,27.9c.85-5.46,2.47-10.07,4.86-13.82,2.39-3.84,5.59-6.74,9.6-8.7,4.1-2.05,8.92-3.07,14.46-3.07,4.69,0,8.7.94,12.03,2.82,3.41,1.88,6.02,4.44,7.81,7.68,1.79,3.24,2.69,6.91,2.69,11.01,0,.85-.09,1.75-.26,2.69-.09.94-.21,1.88-.38,2.82l-6.27,39.68c-.09.77-.17,1.49-.26,2.18-.09.68-.13,1.28-.13,1.79,0,2.65.81,4.74,2.43,6.27,1.62,1.54,3.67,2.3,6.14,2.3,3.07,0,5.67-.94,7.81-2.82,2.22-1.96,3.54-4.52,3.97-7.68l6.78-43.14c.85-5.46,2.47-10.07,4.86-13.82,2.47-3.84,5.72-6.74,9.73-8.7,4.01-2.05,8.79-3.07,14.34-3.07,4.78,0,8.83.94,12.16,2.82,3.33,1.88,5.89,4.44,7.68,7.68,1.79,3.24,2.69,6.91,2.69,11.01,0,.85-.04,1.75-.13,2.69-.09.94-.21,1.83-.38,2.69l-10.11,64.26h-15.36l10.37-65.41c.08-.43.13-.98.13-1.66.08-.77.13-1.37.13-1.79,0-2.56-.85-4.65-2.56-6.27-1.62-1.71-3.75-2.56-6.4-2.56-1.96,0-3.8.43-5.5,1.28-1.62.85-2.99,2.05-4.1,3.58-1.02,1.45-1.66,3.24-1.92,5.38l-6.91,43.39c-.77,5.38-2.39,9.98-4.86,13.82-2.47,3.84-5.72,6.78-9.73,8.83-4.01,1.96-8.83,2.94-14.46,2.94Z" style="fill:#5865f2;"/></g></svg>